:FULLY-SPECIFIED
:FORCE-ALL-JOINTS-BE-3DOF
:DEGREES
421
root 10.0923 16.7544 23.3715 8.16413 0.340079 -4.72743
lfemur -44.1295 2.46703 -18.6683
ltibia 34.4534 0 0
lfoot 1.12919 7.77966 0
ltoes 1.92085 0 0
rfemur 24.8603 3.02752 28.3196
rtibia 7.31528e-14 0 0
rfoot 9.41801 3.91051 0
rtoes -22.3075 0 0
lowerback -8.77415 2.76314 1.22441
upperback -1.79946 3.49013 2.17307
thorax 2.98216 1.74173 1.95036
lowerneck -19.4868 -6.95681 -14.6684
upperneck 21.9234 -9.00444 14.2777
head 11.7761 -3.65347 6.34443
lclavicle -6.32539e-15 -5.96354e-15 0
lhumerus -51.0294 -7.1516 92.5795
lradius 22.4522 0 0
lwrist 0.884618 0 0
lhand -7.18723 -22.5429 0
lfingers 7.12502 0 0
lthumb 18.6907 6.57915 0
rclavicle -6.32539e-15 -5.96354e-15 0
rhumerus -36.1808 10.0838 -88.6768
rradius 33.0314 0 0
rwrist -14.1029 0 0
rhand -29.0392 -24.6137 0
rfingers 7.12502 0 0
rthumb -2.3896 -54.58 0
422
root 10.1332 16.7817 23.5808 8.13242 0.286383 -4.18348
lfemur -43.5149 2.37975 -19.4282
ltibia 34.8973 0 0
lfoot 0.531252 7.53332 0
ltoes 3.19886 0 0
rfemur 23.0592 2.48244 27.2793
rtibia 4.16849 0 0
rfoot 10.6502 4.11536 0
rtoes -21.6528 0 0
lowerback -8.60154 2.71815 0.862915
upperback -1.95532 3.47262 1.98789
thorax 2.71522 1.73396 1.94265
lowerneck -19.355 -6.93281 -14.7493
upperneck 21.9639 -8.95541 14.2325
head 11.758 -3.64847 6.35166
lclavicle -1.19308e-14 -5.38559e-15 0
lhumerus -50.3548 -6.60588 91.9956
lradius 21.951 0 0
lwrist -0.0569046 0 0
lhand -7.34298 -22.6409 0
lfingers 7.12502 0 0
lthumb 18.5409 6.49579 0
rclavicle -1.19308e-14 -5.38559e-15 0
rhumerus -37.0317 9.73333 -88.8028
rradius 32.5121 0 0
rwrist -13.9483 0 0
rhand -28.6833 -25.3328 0
rfingers 7.12502 0 0
rthumb -2.0459 -55.3007 0
423
root 10.1863 16.8272 23.839 8.07027 0.0457526 -3.43759
lfemur -42.4423 2.3171 -20.4003
ltibia 35.0497 0 0
lfoot -0.43838 7.43016 0
ltoes 4.09595 0 0
rfemur 19.9635 1.79292 25.7875
rtibia 10.888 0 0
rfoot 11.8997 4.60754 0
rtoes -20.0652 0 0
lowerback -8.35781 2.68771 0.352505
upperback -2.14568 3.48688 1.75576
thorax 2.36673 1.74294 1.96879
lowerneck -19.127 -6.85404 -14.8182
upperneck 21.9975 -8.82904 14.1297
head 11.7005 -3.61772 6.34776
lclavicle -1.9656e-14 -3.85789e-15 0
lhumerus -49.4383 -5.8073 91.228
lradius 21.3401 0 0
lwrist -1.27842 0 0
lhand -7.46581 -22.6814 0
lfingers 7.12502 0 0
lthumb 18.4227 6.46576 0
rclavicle -1.9656e-14 -3.85789e-15 0
rhumerus -38.1332 9.36977 -88.9322
rradius 31.9588 0 0
rwrist -13.7444 0 0
rhand -28.1196 -26.3996 0
rfingers 7.12502 0 0
rthumb -1.50139 -56.3704 0
424
root 10.2404 16.8779 24.095 7.99614 -0.277542 -2.65541
lfemur -41.2262 2.26659 -21.385
ltibia 35.0141 0 0
lfoot -1.51972 7.43104 0
ltoes 4.66627 0 0
rfemur 16.4482 1.0913 24.1924
rtibia 18.3735 0 0
rfoot 12.9942 5.24445 0
rtoes -18.077 0 0
lowerback -8.10341 2.67012 -0.191521
upperback -2.32353 3.51982 1.52186
thorax 2.02309 1.76129 2.0143
lowerneck -18.8955 -6.75674 -14.8668
upperneck 22.0231 -8.67464 14.0001
head 11.6318 -3.57577 6.33431
lclavicle -2.80854e-14 -1.83876e-15 0
lhumerus -48.4684 -4.94368 90.4342
lradius 20.728 0 0
lwrist -2.53429 0 0
lhand -7.53186 -22.6666 0
lfingers 7.12502 0 0
lthumb 18.3591 6.48556 0
rclavicle -2.80854e-14 -1.83876e-15 0
rhumerus -39.2346 9.02931 -89.0383
rradius 31.4512 0 0
rwrist -13.5266 0 0
rhand -27.4729 -27.5942 0
rfingers 7.12502 0 0
rthumb -0.876877 -57.5681 0
425
root 10.2842 16.9213 24.2976 7.9285 -0.579231 -2.00257
lfemur -40.181 2.21572 -22.1824
ltibia 34.8937 0 0
lfoot -2.45277 7.49682 0
ltoes 4.96395 0 0
rfemur 13.3882 0.509926 22.842
rtibia 24.8399 0 0
rfoot 13.7615 5.88351 0
rtoes -16.2205 0 0
lowerback -7.8988 2.66369 -0.653866
upperback -2.44182 3.55836 1.33141
thorax 1.77069 1.78158 2.06472
lowerneck -18.753 -6.67712 -14.8864
upperneck 22.0396 -8.5415 13.8746
head 11.5799 -3.53718 6.3129
lclavicle -3.58034e-14 2.13509e-16 0
lhumerus -47.6336 -4.20283 89.772
lradius 20.2231 0 0
lwrist -3.57888 0 0
lhand -7.51725 -22.5983 0
lfingers 7.12502 0 0
lthumb 18.3731 6.55171 0
rclavicle -3.58034e-14 2.13509e-16 0
rhumerus -40.0855 8.74811 -89.0944
rradius 31.0691 0 0
rwrist -13.3307 0 0
rhand -26.8685 -28.6961 0
rfingers 7.12502 0 0
rthumb -0.293129 -58.6731 0
426
root 10.3066 16.9443 24.3958 7.88579 -0.755047 -1.64471
lfemur -39.6214 2.15197 -22.5928
ltibia 34.7917 0 0
lfoot -2.97756 7.58837 0
ltoes 5.04314 0 0
rfemur 11.6587 0.181138 22.0844
rtibia 28.5023 0 0
rfoot 14.0292 6.38213 0
rtoes -15.0281 0 0
lowerback -7.80444 2.66672 -0.919231
upperback -2.45353 3.58943 1.22958
thorax 1.69595 1.79641 2.10557
lowerneck -18.792 -6.65139 -14.8686
upperneck 22.0459 -8.47892 13.784
head 11.5729 -3.51652 6.2851
lclavicle -4.13944e-14 1.8406e-15 0
lhumerus -47.1222 -3.77257 89.3989
lradius 19.9338 0 0
lwrist -4.16655 0 0
lhand -7.39808 -22.4786 0
lfingers 7.12502 0 0
lthumb 18.4878 6.66073 0
rclavicle -4.13944e-14 1.8406e-15 0
rhumerus -40.4351 8.56236 -89.0737
rradius 30.8922 0 0
rwrist -13.1922 0 0
rhand -26.4314 -29.4854 0
rfingers 7.12502 0 0
rthumb 0.129068 -59.4644 0
427
root 10.2962 16.9344 24.3384 7.8865 -0.70072 -1.74747
lfemur -39.8618 2.06285 -22.4164
ltibia 34.8114 0 0
lfoot -2.83409 7.66656 0
ltoes 4.958 0 0
rfemur 12.1345 0.237285 22.2678
rtibia 27.5756 0 0
rfoot 13.6249 6.59772 0
rtoes -15.032 0 0
lowerback -7.88079 2.67751 -0.872319
upperback -2.31164 3.59992 1.26157
thorax 1.88527 1.79837 2.12238
lowerneck -19.105 -6.71579 -14.8047
upperneck 22.0409 -8.53618 13.7591
head 11.6388 -3.52834 6.25251
lclavicle -4.3443e-14 2.5842e-15 0
lhumerus -47.1228 -3.8407 89.4726
lradius 19.9687 0 0
lwrist -4.05167 0 0
lhand -7.1505 -22.3095 0
lfingers 7.12502 0 0
lthumb 18.7261 6.80914 0
rclavicle -4.3443e-14 2.5842e-15 0
rhumerus -40.0329 8.50823 -88.9495
rradius 31.0002 0 0
rwrist -13.1469 0 0
rhand -26.2866 -29.7417 0
rfingers 7.12502 0 0
rthumb 0.268929 -59.7213 0
428
root 10.3322 16.9734 24.5251 7.86235 -0.959475 -1.34051
lfemur -38.9065 2.28619 -23.0151
ltibia 34.56 0 0
lfoot -3.48345 7.56761 0
ltoes 4.91577 0 0
rfemur 9.88952 -0.0338053 21.472
rtibia 31.9408 0 0
rfoot 14.5397 6.20498 0
rtoes -14.2752 0 0
lowerback -7.62409 2.65111 -1.10059
upperback -2.66965 3.58464 1.14906
thorax 1.36761 1.79889 2.10774
lowerneck -18.3442 -6.52339 -14.9339
upperneck 22.0589 -8.33663 13.7585
head 11.4655 -3.47714 6.31378
lclavicle -4.01671e-14 1.76329e-15 0
lhumerus -46.834 -3.48855 89.1482
lradius 19.773 0 0
lwrist -4.56542 0 0
lhand -7.73161 -22.6662 0
lfingers 7.12502 0 0
lthumb 18.1667 6.49971 0
rclavicle -4.01671e-14 1.76329e-15 0
rhumerus -41.1873 8.60483 -89.2396
rradius 30.701 0 0
rwrist -13.1841 0 0
rhand -26.5381 -29.3393 0
rfingers 7.12502 0 0
rthumb 0.0260634 -59.3162 0
